<svg width="554" height="161" viewBox="0 0 554 161" fill="none" xmlns="http://www.w3.org/2000/svg">
<path d="M504.265 72.6918C511.348 59.4902 504.072 46.8451 489.502 46.5133C456.357 45.7584 423.211 45.0938 389.408 44.3786C390.18 42.9134 390.632 41.7551 391.331 40.7729C399.152 29.7852 406.917 18.7547 414.966 7.93563C416.115 6.3915 418.682 5.07229 420.602 5.05807C446.098 4.86969 471.601 4.62448 497.092 5.01409C527.154 5.47351 550.341 27.4795 553.167 57.5082C555.818 85.694 536.408 111.754 507.949 117.761C502.793 118.85 497.357 119.019 492.059 118.953C460.234 118.553 428.411 118.014 396.591 117.354C393.158 117.282 391.2 118.341 389.362 121.222C382.108 132.59 374.666 143.842 367.053 154.971C365.96 156.569 363.559 158.201 361.741 158.227C344.582 158.473 327.418 158.374 309.73 158.374C310.329 157.154 310.671 156.139 311.262 155.3C328.331 131.067 345.495 106.901 362.426 82.572C364.516 79.5683 366.993 79.7935 369.771 79.7939C409.1 79.7999 448.429 79.7763 487.758 79.8645C494.256 79.8791 499.989 78.5712 504.265 72.6918Z" fill="#FCFCFC"/>
<path d="M190.728 69.416C175.957 48.0465 161.357 26.9927 146.319 5.30838C148.256 5.14899 149.63 4.93931 151.003 4.93766C167.33 4.91834 183.656 4.99595 199.982 4.87592C203.119 4.85285 205.013 5.75028 206.862 8.49921C228.318 40.4082 249.951 72.1984 271.548 104.013C271.998 104.677 272.565 105.262 273.441 106.324C279.958 97.1277 286.297 88.2044 292.614 79.265C309.427 55.4703 326.208 31.6526 343.1 7.91327C344.032 6.60297 345.837 5.08777 347.252 5.07224C364.86 4.87885 382.471 4.94577 401.09 4.94577C393.835 15.278 387.138 24.8764 380.38 34.4321C355.097 70.1807 329.862 105.963 304.462 141.628C295.962 153.565 285.41 161.93 269.436 160.686C259.414 159.905 251.344 155.611 245.588 147.845C234.99 133.547 224.995 118.801 214.8 104.206C206.793 92.7426 198.863 81.2252 190.728 69.416Z" fill="#FCFCFC"/>
<path d="M36.48 31.9767C37.8187 27.4385 38.9275 23.2507 40.3069 19.154C43.9308 8.39149 51.346 1.84101 62.6412 0.326941C74.7064 -1.29034 84.486 3.08564 90.6204 13.6083C103.273 35.312 115.523 57.2517 127.834 79.1532C132.456 87.3754 136.786 95.7612 141.433 104.415C150.085 88.644 158.584 73.1513 167.548 56.8115C176.113 69.2124 184.157 80.7605 192.016 92.4331C192.611 93.3174 192.306 95.304 191.723 96.4113C183.348 112.31 174.439 127.942 166.496 144.05C156.924 163.464 124.229 163.601 114.356 143.298C105.483 125.051 95.3909 107.399 85.911 89.4446C81.718 81.5034 77.7182 73.4604 73.6024 65.4783C73.1793 64.6576 72.5614 63.9374 71.4765 62.3602C63.1047 93.9365 54.9585 124.662 46.7648 155.566C31.199 155.566 15.9808 155.566 0 155.566C12.2012 114.24 24.2873 73.3044 36.48 31.9767Z" fill="#FCFCFC"/>
</svg>
